/* XPM */
static char *_6e5efd11cca444aabbb2c2b887b55e3n5e4Tsh6y3mKgmMS[] = {
/* columns rows colors chars-per-pixel */
"32 32 10 1 ",
"  c None",
". c #90625D",
"X c #AA7959",
"o c #B09643",
"O c #BFA954",
"+ c #C49A6C",
"@ c #D4C169",
"# c #EAE178",
"$ c #DCB98A",
"% c #F4F4A0",
/* pixels */
"                                ",
"                                ",
"                                ",
"                                ",
"                                ",
"                                ",
"                                ",
"                                ",
"                                ",
"        ..          ..          ",
"       .@@..........@@.         ",
"      .###+$$$$$$$$+###.        ",
"      .##++++$$$$++++##.        ",
"      .##++++++++++++##.        ",
"      .##++++++++++++##.        ",
"      .%##############%.        ",
"      .o%%%%%%%%%%%%%%o.        ",
"      .Oo.....#@.....oO.        ",
"      .OOXXXXX@@XXXXXOO.        ",
"      .@OXXXXXXXXXXXXO@.        ",
"       .@@@@@@@@@@@@@@.         ",
"        ..............          ",
"                                ",
"                                ",
"                                ",
"                                ",
"                                ",
"                                ",
"                                ",
"                                ",
"                                ",
"                                "
};
