/* XPM */
static char *af53049ded924b50c56c6b70ec7b532bPRIb2ZYKWs3gmwS4[] = {
/* columns rows colors chars-per-pixel */
"32 32 4 1 ",
"  c None",
". c #EDBF5A",
"X c #F0D59C",
"o c white",
/* pixels */
"                                ",
"                                ",
"                                ",
"            ........            ",
"          ...XXXXXX...          ",
"        ...XXXXXXXXXXX..        ",
"       ..XXXXXXXXXXX.X...       ",
"      ..XXXXXXXX..........      ",
"     ..XXXXXXXX............     ",
"     .XXXXXXXXXoo..........     ",
"    ..XXXXXXXXXoo...........    ",
"    .XXXXXXXXX.oo...........    ",
"   ..XXXXXXXX.oooo  .........   ",
"   .XXXXXX... oooo    .......   ",
"   .XXXXXoooooooooooooo......   ",
"   .XXXXX.oooooooooooo  .....   ",
"   .XXXXX..ooooooooooX  .....   ",
"   .XXX.X.  ooooooooXXXX ....   ",
"   .XXX.X.   ooooooXXXXXX....   ",
"   ..XX...  ooooooooXXXXX....   ",
"    ..XX..  ooooooooXXXXXX..    ",
"    ..XX.. oooXXXXoooXXXXX..    ",
"     ..X...oo XXXXXooXXXXX.     ",
"     ......o  XXXXXXoXXXXX.     ",
"      ......   XXXXXXXXXX.      ",
"       ......  XXXXXXXXXX       ",
"        ....... XXXXXXXX        ",
"          ........XXXX          ",
"            ........            ",
"                                ",
"                                ",
"                                "
};
