/* XPM */
static char *_3cbfb3a5f8a453e821ff6bbb10594e8SMX6FbO7bJGdAvSm[] = {
/* columns rows colors chars-per-pixel */
"32 32 6 1 ",
"  c None",
". c #322C43",
"X c #693F55",
"o c #964B4C",
"O c #B36950",
"+ c #DE9A60",
/* pixels */
" +++++++++++++++++++++++++++++++",
" ++++O+OOOOOOOO++++O+OOOOOOOO+++",
" ++++OO.......OOOOOO.......OOOOO",
" +O+OOO.XXXXXXOOOOOO.XXXXXXOOOOO",
" +OooOO.XXoooXOOooOo.XXXoXXoOOoo",
" Oooooo.XoXooXooOooo.XooooXooooO",
" O......oXooo........ooooo.....O",
" oXXXXXoooooooooooooooooooooooXo",
" oXXXXoooXXXXXXXXXXXXXXX.oXoooXo",
" oXXXoXooX++++++OOO+.X++.XooooXo",
" oXXoXoooX+++++O+O+.X+++.XXoooXo",
" OXooooooX++++++OOOX+OO+.XXooXXO",
" OXXXXXXoX+++++OOOOX+OO+.XXXXXXO",
" O+++++XoX++O+OOOOOoOOO+.XX+++OO",
" O++OOOXoX+O+OOOOOOOOOOO.XX+OOOO",
" OOOOOOXoXOOOOOOOOOOOOOO.XXOOOOO",
" OoOOOoXoXOOOOOOOOOOOOOO.XXOOOOO",
" OoooooXoXOOOOOOOOOOOOOo.XXOOOOO",
" O......oXOOOOOOOOOOOoOo.XX....O",
" O.XXXXooXOOOOO..OOOoOoo.XXoXXXO",
" o.XXXoooXOOOO.X+OOoOooo.XXXooXO",
" o.XXoXooXOOO.X+OOoooooo.XooooXO",
" o.XoXoooXoooXXooooooooo.XXoooXo",
" o.oooooo................XoXooXo",
" O.ooooooXXXXXXXXXXXXXXXXXXoooXo",
" O.XXXX.XooooXXXXXXXXXXXXXXXXXXo",
" O+++++.XXoooX++++++.XooooX++O+o",
" OO++O+.XXoooX+++OOO.XXoooX++OOO",
" OOOOOO.XXXooX+OOOOo.XXXooXOOOOO",
" oOoooO.XXXXXXOoOOoo.XXXXXXOoOoo",
" oooooOooooOOOoOoooooooOOoOoOooo",
" ..............................."
};
